<svg xmlns="http://www.w3.org/2000/svg" version="1.1" xmlns:xlink="http://www.w3.org/1999/xlink" xmlns:svgjs="http://svgjs.dev/svgjs" width="2000" height="1500" viewBox="0 0 2000 1500"><rect width="2000" height="1500" fill="#ffffff"></rect><g transform="matrix(0.75,0,0,0.75,250,0)"><svg viewBox="0 0 280 280" data-background-color="#ffffff" preserveAspectRatio="xMidYMid meet" height="2000" width="2000" xmlns="http://www.w3.org/2000/svg" xmlns:xlink="http://www.w3.org/1999/xlink"><g id="tight-bounds" transform="matrix(1,0,0,1,0,0)"><svg viewBox="0 0 280 280" height="280" width="280"><g><svg viewBox="0 0 280 280" height="280" width="280"><g><svg viewBox="0 0 280 280" height="280" width="280"><g id="textblocktransform"><svg viewBox="0 0 280 280" height="280" width="280" id="textblock"><g><svg viewBox="0 0 280 280" height="280" width="280"><g transform="matrix(1,0,0,1,90.50252531694167,110.84667982283355)"><svg viewBox="0 0 98.99494936611666 58.306640354332906" height="58.306640354332906" width="98.99494936611666"><g id="icon-0"><svg xmlns="http://www.w3.org/2000/svg" xmlns:xlink="http://www.w3.org/1999/xlink" version="1.1" x="0" y="0" viewBox="6.768732207450027 24.55005293527058 86.434015451593 50.9084259912944" enable-background="new 0 0 100 100" xml:space="preserve" height="58.306640354332906" width="98.99494936611666" class="icon-jxe-0" data-fill-palette-color="accent" id="jxe-0"><path fill="#007fff" d="M88.614 24.551H14.806C11.533 24.551 6.817 24.369 6.817 29.051V65.662C6.817 69.202 5.974 75.449 11.334 75.449H84.736C88.3 75.449 92.189 75.853 93.117 71.386A1.6 1.6 0 0 0 93.181 70.949V33.666C93.181 30.164 93.786 24.551 88.614 24.551M18.493 27.551H84.255C85.651 27.551 90.183 26.764 90.183 29.327V32.667H9.816V29.536C9.816 26.369 16.735 27.551 18.493 27.551M79.594 72.449H15.739C12.271 72.449 9.814 72.89 9.814 68.628V42.334H90.18V70.699C89.291 73.854 81.736 72.449 79.594 72.449" data-fill-palette-color="accent"></path><polygon fill="#007fff" points="82.433,47.994 76.597,47.994 76.597,52.049 82.334,52.049 82.334,54.025 86.388,50.07   82.433,46.016 " data-fill-palette-color="accent"></polygon><path fill="#007fff" d="M59.708 45.989H14.958V54.01H59.708V53.024H69.084V46.978H59.708zM58.958 53.261H15.708V46.74H58.958zM68.584 47.477V52.523H59.708V47.477z" data-fill-palette-color="accent"></path><path d="M60.541 51.25H61.025L61.377 50.704C61.473 50.558 61.552 50.43 61.632 50.284H61.643C61.728 50.43 61.808 50.564 61.904 50.704L62.263 51.25H62.758L61.912 49.999 62.738 48.828H62.258L61.922 49.343A7 7 0 0 0 61.678 49.739H61.666A5 5 0 0 0 61.416 49.348L61.071 48.828H60.58L61.401 50.014z" fill="#007fff" data-fill-palette-color="accent"></path><path d="M63.341 51.25L63.693 50.704C63.788 50.558 63.868 50.43 63.948 50.284H63.959C64.043 50.43 64.123 50.564 64.219 50.704L64.579 51.25H65.074L64.228 49.999 65.054 48.828H64.574L64.238 49.343A9 9 0 0 0 63.994 49.739H63.983A6 6 0 0 0 63.733 49.348L63.387 48.828H62.897L63.717 50.014 62.857 51.25z" fill="#007fff" data-fill-palette-color="accent"></path><path d="M65.656 51.25L66.006 50.704C66.103 50.558 66.183 50.43 66.263 50.284H66.273C66.358 50.43 66.438 50.564 66.533 50.704L66.894 51.25H67.389L66.542 49.999 67.367 48.828H66.888L66.552 49.343A8 8 0 0 0 66.308 49.739H66.297A6 6 0 0 0 66.047 49.348L65.701 48.828H65.211L66.031 50.014 65.17 51.25z" fill="#007fff" data-fill-palette-color="accent"></path></svg></g></svg></g><g id="text-0"><path d="M26.512 92.675v0c0.905 0.299 1.699 0.753 2.382 1.361 0.685 0.601 1.228 1.3 1.629 2.097 0.401 0.797 0.639 1.65 0.713 2.558 0.081 0.91-0.028 1.818-0.328 2.723v0l-0.632 1.912c-0.299 0.905-0.754 1.702-1.363 2.391-0.603 0.691-1.303 1.237-2.101 1.639-0.795 0.395-1.648 0.632-2.558 0.713-0.91 0.081-1.818-0.028-2.723-0.328v0l-14.377-4.753c-0.905-0.299-1.699-0.753-2.382-1.36-0.683-0.608-1.226-1.307-1.629-2.098-0.401-0.797-0.638-1.653-0.71-2.568-0.079-0.917 0.032-1.828 0.331-2.732v0l0.632-1.912c0.299-0.905 0.753-1.699 1.36-2.382 0.601-0.685 1.3-1.228 2.097-1.629 0.797-0.401 1.65-0.639 2.559-0.713 0.91-0.081 1.818 0.028 2.723 0.328v0l1.089 0.36-0.423 2.533-1.463-0.484c-0.593-0.196-1.184-0.268-1.774-0.215-0.596 0.05-1.15 0.207-1.661 0.469-0.515 0.254-0.97 0.602-1.363 1.044-0.394 0.442-0.69 0.963-0.888 1.562v0l-0.556 1.683c-0.198 0.599-0.271 1.194-0.218 1.783 0.052 0.59 0.209 1.144 0.468 1.661 0.252 0.522 0.602 0.98 1.051 1.376 0.442 0.394 0.96 0.689 1.553 0.885v0l14.377 4.753c0.593 0.196 1.184 0.268 1.774 0.215 0.596-0.05 1.154-0.209 1.674-0.475 0.524-0.258 0.982-0.608 1.376-1.051 0.394-0.442 0.69-0.963 0.888-1.562v0l0.556-1.682c0.198-0.599 0.271-1.194 0.218-1.784-0.052-0.59-0.213-1.141-0.481-1.654-0.26-0.517-0.615-0.974-1.064-1.37-0.442-0.394-0.96-0.689-1.553-0.885v0l-1.462-0.483 1.188-2.28z" fill="#007fff" data-fill-palette-color="primary"></path><path d="M30.066 63.623l-1.299 2.038c-0.26 0.408-0.429 0.841-0.507 1.301-0.069 0.458-0.055 0.904 0.042 1.34 0.091 0.432 0.269 0.84 0.533 1.223 0.256 0.386 0.59 0.71 1.004 0.974v0l12.082 7.7-1.299 2.038-16.973-10.817 0.433-0.679 2.433-0.014c-0.338-0.868-0.468-1.77-0.389-2.707 0.079-0.936 0.382-1.818 0.91-2.644v0l0.763-1.197z" fill="#007fff" data-fill-palette-color="primary"></path><path d="M60.556 48.263v0c0.571 0.577 1.002 1.232 1.294 1.964 0.286 0.728 0.427 1.471 0.423 2.23-0.004 0.759-0.155 1.504-0.453 2.234-0.293 0.725-0.728 1.373-1.305 1.944v0l-1.145 1.133c-0.577 0.571-1.232 1.002-1.964 1.293-0.728 0.286-1.471 0.427-2.231 0.424-0.759-0.004-1.501-0.152-2.226-0.446-0.729-0.298-1.38-0.735-1.951-1.312v0l-6.39-6.454c-0.571-0.577-1-1.23-1.286-1.957-0.291-0.732-0.434-1.478-0.43-2.237 0.004-0.759 0.152-1.501 0.445-2.227 0.303-0.725 0.742-1.373 1.32-1.944v0l1.144-1.133c0.577-0.571 1.227-1.003 1.95-1.293 0.732-0.291 1.478-0.434 2.238-0.431 0.759 0.004 1.504 0.155 2.233 0.453 0.725 0.293 1.373 0.728 1.945 1.305v0l3.336 3.37-7.841 7.764 3.152 3.184c0.34 0.343 0.728 0.602 1.164 0.774 0.426 0.173 0.863 0.261 1.309 0.263 0.446 0.002 0.883-0.081 1.311-0.25 0.438-0.169 0.828-0.423 1.171-0.763v0l1.145-1.133c0.343-0.34 0.602-0.728 0.775-1.164 0.173-0.426 0.261-0.863 0.262-1.309 0.002-0.446-0.081-0.883-0.249-1.311-0.169-0.438-0.423-0.828-0.764-1.171v0l-0.942-0.952 1.994-1.421zM54.454 45.534l-2.097-2.118c-0.345-0.348-0.733-0.606-1.163-0.774-0.431-0.178-0.867-0.265-1.309-0.263-0.446-0.002-0.886 0.079-1.318 0.242-0.433 0.173-0.821 0.43-1.165 0.771v0l-1.144 1.133c-0.343 0.34-0.604 0.726-0.782 1.157-0.168 0.431-0.253 0.87-0.256 1.316-0.007 0.441 0.076 0.878 0.25 1.311 0.164 0.433 0.418 0.823 0.763 1.171v0l2.097 2.118z" fill="#007fff" data-fill-palette-color="primary"></path><path d="M89.5 35.984l-0.697 0.403-2.183-1.098c-0.103 0.921-0.401 1.779-0.893 2.576-0.496 0.791-1.171 1.434-2.025 1.928v0l-0.523 0.303c-0.703 0.407-1.445 0.658-2.228 0.754-0.776 0.092-1.531 0.041-2.265-0.155-0.734-0.196-1.414-0.527-2.041-0.994-0.63-0.473-1.149-1.061-1.556-1.764v0l-4.548-7.86c-0.407-0.703-0.656-1.443-0.749-2.219-0.096-0.782-0.046-1.54 0.149-2.274 0.196-0.734 0.527-1.414 0.995-2.041 0.476-0.625 1.066-1.14 1.768-1.547v0l0.523-0.302c0.784-0.454 1.601-0.717 2.451-0.791 0.859-0.07 1.689 0.038 2.492 0.326v0l-4.882-8.435 2.092-1.21zM84.711 32.532l-4.685-8.096c-0.245-0.424-0.555-0.772-0.93-1.044-0.372-0.281-0.772-0.476-1.2-0.585-0.431-0.115-0.877-0.148-1.336-0.099-0.463 0.058-0.903 0.208-1.322 0.451v0l-1.394 0.807c-0.418 0.242-0.768 0.549-1.049 0.921-0.272 0.374-0.465 0.777-0.58 1.208-0.118 0.425-0.148 0.869-0.09 1.332 0.049 0.46 0.196 0.902 0.441 1.326v0l4.685 8.096c0.242 0.418 0.552 0.766 0.93 1.044 0.369 0.275 0.769 0.47 1.2 0.585 0.431 0.115 0.875 0.145 1.332 0.09 0.466-0.053 0.908-0.2 1.326-0.442v0l1.394-0.807c0.418-0.242 0.766-0.552 1.044-0.93 0.275-0.369 0.47-0.769 0.586-1.199 0.115-0.431 0.145-0.875 0.09-1.332-0.053-0.466-0.2-0.908-0.442-1.326z" fill="#007fff" data-fill-palette-color="primary"></path><path d="M100.87 5.173l-2.675 0.859-0.985-3.067 2.674-0.859zM108.314 29.008l-2.301 0.739-6.155-19.162 2.301-0.739z" fill="#007fff" data-fill-palette-color="primary"></path><path d="M135.121 24.753l-2.194 0.212c-0.728 0.07-1.43 0-2.105-0.212-0.668-0.212-1.262-0.536-1.783-0.97-0.527-0.435-0.963-0.959-1.305-1.574-0.343-0.614-0.549-1.286-0.619-2.014v0l-1.204-12.467-3.598 0.348-0.22-2.285 3.598-0.347-0.466-4.821 2.368-0.623 0.503 5.211 5.091-0.491 0.22 2.285-5.091 0.491 1.216 12.587c0.039 0.401 0.152 0.768 0.339 1.101 0.181 0.333 0.414 0.618 0.699 0.853 0.292 0.235 0.619 0.409 0.981 0.522 0.369 0.119 0.754 0.16 1.155 0.121v0l2.195-0.212z" fill="#007fff" data-fill-palette-color="primary"></path><path d="M181.683 32.337l-2.1-0.673c-0.697-0.223-1.313-0.565-1.849-1.027-0.53-0.459-0.948-0.991-1.254-1.596-0.313-0.608-0.505-1.261-0.577-1.961-0.072-0.7 0.004-1.398 0.227-2.095v0l3.823-11.927-3.442-1.103 0.7-2.186 3.442 1.103 1.479-4.612 2.421 0.364-1.598 4.985 4.87 1.561-0.7 2.186-4.871-1.561-3.86 12.043c-0.123 0.384-0.164 0.765-0.123 1.144 0.034 0.377 0.136 0.731 0.305 1.06 0.176 0.331 0.407 0.62 0.695 0.868 0.292 0.256 0.629 0.445 1.012 0.568v0l2.1 0.673z" fill="#007fff" data-fill-palette-color="primary"></path><path d="M212.677 28.066l-2.096-1.203c-0.419-0.241-0.86-0.389-1.323-0.446-0.46-0.047-0.906-0.013-1.336 0.104-0.427 0.111-0.826 0.307-1.198 0.59-0.373 0.273-0.682 0.622-0.926 1.047v0l-7.13 12.427-2.096-1.203 10.017-17.456 0.698 0.4 0.127 2.43c0.852-0.378 1.747-0.549 2.686-0.514 0.939 0.036 1.834 0.298 2.684 0.786v0l1.231 0.706z" fill="#007fff" data-fill-palette-color="primary"></path><path d="M225.696 61.876l-0.592-0.546 0.398-2.41c-0.91 0.176-1.818 0.147-2.725-0.086-0.903-0.238-1.717-0.691-2.444-1.36v0l-0.445-0.409c-0.598-0.55-1.059-1.184-1.383-1.902-0.319-0.714-0.495-1.45-0.526-2.208-0.032-0.759 0.082-1.507 0.341-2.245 0.264-0.743 0.67-1.413 1.221-2.01v0l9.885-10.743 1.778 1.636-9.981 10.847c-0.327 0.356-0.567 0.755-0.719 1.199-0.153 0.434-0.22 0.874-0.202 1.319 0.019 0.446 0.122 0.878 0.311 1.298 0.189 0.429 0.461 0.807 0.816 1.135v0l1.186 1.091c0.356 0.327 0.755 0.567 1.198 0.719 0.434 0.153 0.874 0.22 1.32 0.202 0.446-0.019 0.878-0.122 1.298-0.31 0.429-0.189 0.807-0.461 1.134-0.817v0l9.981-10.847 1.778 1.636z" fill="#007fff" data-fill-palette-color="primary"></path><path d="M247.541 83.722v0c-0.684 0.438-1.4 0.701-2.149 0.79-0.748 0.089-1.478 0.026-2.189-0.188-0.711-0.214-1.379-0.56-2.003-1.037-0.624-0.477-1.155-1.058-1.593-1.742v0l-0.874-1.365c-0.438-0.684-0.726-1.42-0.864-2.208-0.138-0.788-0.131-1.562 0.02-2.321 0.152-0.759 0.44-1.473 0.864-2.143 0.43-0.674 0.986-1.229 1.67-1.667v0l0.678-0.434 1.634 1.823-1.128 0.722c-0.407 0.261-0.735 0.594-0.985 1.001-0.248 0.398-0.412 0.826-0.493 1.284-0.085 0.453-0.082 0.917 0.008 1.394 0.081 0.474 0.251 0.915 0.512 1.322v0l0.874 1.365c0.261 0.407 0.573 0.757 0.936 1.051 0.361 0.303 0.747 0.526 1.158 0.669 0.414 0.149 0.837 0.205 1.267 0.169 0.434-0.031 0.855-0.177 1.263-0.438v0c0.605-0.387 1.017-0.839 1.237-1.354 0.214-0.512 0.312-1.069 0.293-1.67-0.019-0.602-0.122-1.237-0.311-1.905-0.189-0.668-0.382-1.35-0.58-2.044-0.207-0.696-0.377-1.392-0.511-2.087-0.138-0.701-0.168-1.383-0.091-2.046 0.083-0.667 0.311-1.307 0.683-1.921 0.367-0.61 0.954-1.173 1.763-1.69v0c0.684-0.438 1.394-0.705 2.129-0.802 0.741-0.1 1.46-0.054 2.157 0.138 0.697 0.192 1.35 0.515 1.959 0.969 0.613 0.46 1.139 1.032 1.577 1.716v0l0.766 1.196c0.438 0.684 0.723 1.41 0.856 2.177 0.127 0.771 0.11 1.528-0.053 2.27-0.163 0.742-0.466 1.438-0.91 2.089-0.438 0.647-0.999 1.19-1.683 1.628v0l-0.068 0.043-1.634-1.823 0.509-0.326c0.413-0.264 0.748-0.587 1.006-0.967 0.26-0.39 0.437-0.798 0.531-1.225 0.096-0.436 0.107-0.885 0.034-1.348-0.075-0.454-0.243-0.884-0.504-1.291v0l-0.766-1.196c-0.261-0.407-0.566-0.753-0.916-1.039-0.352-0.276-0.727-0.475-1.123-0.596-0.396-0.121-0.804-0.154-1.225-0.101-0.418 0.044-0.833 0.199-1.245 0.463v0c-0.582 0.373-0.972 0.81-1.17 1.311-0.203 0.505-0.292 1.056-0.268 1.654 0.024 0.598 0.131 1.231 0.32 1.899 0.189 0.668 0.377 1.349 0.566 2.041 0.186 0.702 0.341 1.404 0.463 2.106 0.127 0.708 0.148 1.395 0.066 2.063-0.083 0.667-0.314 1.309-0.692 1.925-0.378 0.617-0.969 1.182-1.771 1.696z" fill="#007fff" data-fill-palette-color="primary"></path><path d="M252.671 110.528l-0.7-2.091c-0.232-0.694-0.321-1.393-0.267-2.098 0.056-0.698 0.238-1.35 0.545-1.956 0.305-0.612 0.718-1.153 1.24-1.625 0.522-0.472 1.129-0.824 1.823-1.056v0l11.877-3.976-1.148-3.428 2.177-0.728 1.148 3.427 4.592-1.537 1.139 2.167-4.964 1.662 1.623 4.85-2.177 0.729-1.623-4.851-11.992 4.015c-0.382 0.128-0.714 0.32-0.996 0.577-0.284 0.251-0.509 0.542-0.674 0.873-0.163 0.338-0.259 0.695-0.288 1.074-0.033 0.386 0.014 0.77 0.142 1.152v0l0.699 2.091z" fill="#007fff" data-fill-palette-color="primary"></path><path d="M19.839 194.378v0c-0.917 0.304-1.839 0.415-2.764 0.333-0.923-0.076-1.788-0.316-2.594-0.72-0.806-0.405-1.515-0.954-2.127-1.65-0.619-0.693-1.08-1.498-1.384-2.415v0l-0.641-1.931c-0.306-0.924-0.418-1.848-0.336-2.773 0.074-0.93 0.313-1.797 0.717-2.604 0.405-0.806 0.954-1.515 1.65-2.127 0.693-0.619 1.498-1.08 2.415-1.385v0l14.574-4.832c0.917-0.304 1.839-0.415 2.764-0.333 0.923 0.076 1.788 0.316 2.594 0.72 0.806 0.405 1.516 0.958 2.131 1.659 0.619 0.693 1.081 1.501 1.387 2.425v0l0.64 1.931c0.304 0.917 0.415 1.839 0.334 2.764-0.076 0.923-0.316 1.788-0.721 2.594-0.405 0.806-0.954 1.515-1.649 2.127-0.693 0.619-1.498 1.08-2.416 1.384v0l-1.099 0.365-1.193-2.32 1.481-0.491c0.605-0.201 1.132-0.499 1.581-0.895 0.446-0.403 0.799-0.863 1.059-1.381 0.264-0.526 0.421-1.087 0.47-1.683 0.056-0.598-0.016-1.2-0.216-1.806v0l-0.565-1.701c-0.201-0.605-0.502-1.131-0.904-1.577-0.398-0.455-0.86-0.814-1.387-1.079-0.52-0.266-1.079-0.427-1.677-0.483-0.598-0.056-1.2 0.016-1.806 0.217v0l-14.574 4.832c-0.605 0.201-1.131 0.502-1.577 0.905-0.446 0.403-0.802 0.867-1.066 1.393-0.27 0.528-0.429 1.094-0.477 1.696-0.056 0.598 0.016 1.2 0.217 1.806v0l0.564 1.701c0.201 0.605 0.502 1.131 0.905 1.578 0.396 0.448 0.861 0.804 1.393 1.065 0.524 0.258 1.085 0.415 1.684 0.471 0.596 0.05 1.197-0.026 1.802-0.227v0l1.481-0.491 0.41 2.58z" fill="#007fff" data-fill-palette-color="primary"></path><path d="M43.378 212.713l-1.322-2.071c-0.264-0.413-0.59-0.75-0.98-1.011-0.393-0.267-0.808-0.448-1.244-0.544-0.445-0.098-0.897-0.108-1.357-0.029-0.463 0.073-0.904 0.243-1.322 0.51v0l-12.245 7.821-1.317-2.062 17.2-10.986 0.439 0.688-1.032 2.236c0.939 0.061 1.826 0.327 2.66 0.798 0.829 0.474 1.51 1.13 2.045 1.967v0l0.775 1.214z" fill="#007fff" data-fill-palette-color="primary"></path><path d="M54.293 242.958v0c-0.576 0.582-1.233 1.023-1.971 1.321-0.734 0.303-1.488 0.455-2.262 0.455-0.774 0.009-1.529-0.134-2.266-0.429-0.737-0.285-1.4-0.718-1.987-1.298v0l-1.167-1.154c-0.582-0.576-1.023-1.233-1.321-1.972-0.303-0.734-0.455-1.488-0.454-2.261-0.004-0.769 0.138-1.524 0.428-2.267 0.295-0.737 0.73-1.397 1.306-1.979v0l6.477-6.552c0.58-0.587 1.238-1.032 1.971-1.335 0.734-0.294 1.488-0.445 2.262-0.454 0.769-0.004 1.522 0.141 2.259 0.435 0.742 0.29 1.404 0.723 1.987 1.299v0l1.167 1.154c0.587 0.58 1.028 1.238 1.321 1.971 0.303 0.734 0.457 1.485 0.461 2.255 0.004 0.778-0.138 1.534-0.428 2.266-0.29 0.742-0.725 1.407-1.306 1.994v0l-3.376 3.415-7.955-7.864-3.199 3.236c-0.344 0.348-0.601 0.741-0.77 1.179-0.173 0.433-0.258 0.877-0.256 1.333-0.002 0.451 0.088 0.894 0.271 1.33 0.173 0.436 0.434 0.826 0.783 1.17v0l1.167 1.154c0.348 0.344 0.741 0.601 1.179 0.769 0.438 0.178 0.882 0.263 1.333 0.256 0.456-0.003 0.899-0.093 1.33-0.271 0.436-0.173 0.826-0.434 1.17-0.783v0l0.956-0.966 1.464 2.013zM56.992 236.734l2.13-2.155c0.344-0.348 0.601-0.741 0.77-1.179 0.178-0.438 0.263-0.882 0.255-1.333 0.002-0.451-0.086-0.897-0.264-1.337-0.178-0.431-0.441-0.819-0.789-1.163v0l-1.167-1.153c-0.348-0.344-0.739-0.603-1.172-0.777-0.442-0.173-0.889-0.256-1.34-0.249-0.451-0.002-0.894 0.088-1.33 0.272-0.436 0.173-0.826 0.434-1.17 0.782v0l-2.131 2.155z" fill="#007fff" data-fill-palette-color="primary"></path><path d="M79.584 266.251l-0.706-0.408-0.14-2.476c-0.862 0.378-1.767 0.549-2.715 0.514-0.951-0.03-1.857-0.293-2.717-0.79v0l-0.541-0.312c-0.709-0.409-1.302-0.934-1.778-1.573-0.479-0.633-0.817-1.324-1.012-2.073-0.199-0.743-0.252-1.51-0.159-2.301 0.098-0.788 0.352-1.537 0.762-2.246v0l4.606-7.978c0.413-0.715 0.936-1.312 1.569-1.791 0.636-0.47 1.327-0.807 2.073-1.012 0.743-0.199 1.508-0.249 2.296-0.151 0.791 0.093 1.542 0.344 2.251 0.753v0l0.54 0.312c0.791 0.456 1.432 1.044 1.924 1.762 0.495 0.712 0.818 1.496 0.969 2.35v0l4.944-8.562 2.127 1.228zM80.185 260.297l4.748-8.223c0.245-0.424 0.394-0.87 0.446-1.335 0.061-0.468 0.031-0.92-0.091-1.354-0.112-0.437-0.31-0.846-0.593-1.227-0.281-0.372-0.634-0.68-1.059-0.925v0l-1.421-0.82c-0.424-0.245-0.868-0.396-1.331-0.455-0.472-0.055-0.925-0.022-1.359 0.099-0.437 0.112-0.843 0.312-1.218 0.599-0.378 0.278-0.689 0.629-0.934 1.054v0l-4.747 8.222c-0.245 0.424-0.394 0.87-0.446 1.335-0.058 0.463-0.028 0.914 0.09 1.354 0.112 0.437 0.312 0.843 0.599 1.218 0.278 0.378 0.629 0.689 1.054 0.934v0l1.421 0.821c0.424 0.245 0.87 0.394 1.336 0.445 0.468 0.061 0.92 0.031 1.354-0.09 0.44-0.118 0.846-0.318 1.218-0.599 0.378-0.278 0.689-0.629 0.933-1.053z" fill="#007fff" data-fill-palette-color="primary"></path><path d="M110.177 250.861l-2.714-0.869 0.999-3.117 2.713 0.87zM102.26 274.904l-2.33-0.747 6.229-19.435 2.329 0.747z" fill="#007fff" data-fill-palette-color="primary"></path><path d="M133.311 280l-2.225-0.214c-0.742-0.071-1.426-0.279-2.054-0.623-0.628-0.337-1.16-0.772-1.594-1.306-0.433-0.541-0.763-1.149-0.988-1.825-0.225-0.676-0.302-1.384-0.23-2.126v0l1.216-12.637-3.648-0.351 0.223-2.316 3.648 0.351 0.469-4.88 2.484-0.166-0.508 5.282 5.161 0.496-0.222 2.315-5.162-0.496-1.227 12.758c-0.04 0.414 0 0.802 0.12 1.165 0.113 0.368 0.29 0.696 0.533 0.981 0.242 0.293 0.532 0.533 0.871 0.721 0.347 0.182 0.724 0.292 1.132 0.332v0l2.225 0.214z" fill="#007fff" data-fill-palette-color="primary"></path><path d="M187.871 271.536l-2.129 0.68c-0.71 0.227-1.421 0.306-2.133 0.239-0.71-0.062-1.37-0.252-1.98-0.572-0.612-0.326-1.154-0.755-1.627-1.287-0.473-0.532-0.823-1.153-1.05-1.863v0l-3.867-12.093-3.491 1.116-0.708-2.215 3.49-1.116-1.493-4.671 2.217-1.132 1.616 5.054 4.939-1.579 0.709 2.215-4.939 1.58 3.904 12.207c0.127 0.396 0.317 0.737 0.57 1.023 0.249 0.294 0.541 0.525 0.877 0.692 0.338 0.174 0.699 0.28 1.085 0.319 0.39 0.03 0.78-0.017 1.17-0.141v0l2.129-0.681z" fill="#007fff" data-fill-palette-color="primary"></path><path d="M204.866 242.956l-2.133 1.221c-0.425 0.243-0.778 0.553-1.057 0.929-0.285 0.38-0.486 0.785-0.603 1.216-0.12 0.44-0.151 0.891-0.095 1.354 0.05 0.466 0.199 0.915 0.445 1.346v0l7.217 12.609-2.123 1.215-10.138-17.712 0.708-0.405 2.183 1.14c0.107-0.935 0.415-1.808 0.926-2.619 0.514-0.805 1.202-1.454 2.065-1.947v0l1.249-0.715z" fill="#007fff" data-fill-palette-color="primary"></path><path d="M239.392 237.647l-0.601 0.552-2.404-0.609c0.102 0.936-0.006 1.85-0.324 2.744-0.314 0.899-0.837 1.684-1.569 2.355v0l-0.46 0.422c-0.603 0.554-1.281 0.962-2.034 1.224-0.748 0.267-1.508 0.382-2.281 0.344-0.768-0.033-1.516-0.212-2.243-0.538-0.722-0.33-1.36-0.797-1.913-1.4v0l-10.015-10.912 1.803-1.654 10.11 11.015c0.331 0.361 0.711 0.636 1.14 0.826 0.424 0.194 0.864 0.301 1.319 0.32 0.45 0.024 0.897-0.045 1.341-0.206 0.444-0.152 0.846-0.394 1.207-0.725v0l1.209-1.11c0.361-0.331 0.636-0.711 0.826-1.14 0.199-0.429 0.306-0.868 0.32-1.319 0.02-0.455-0.049-0.902-0.206-1.341-0.152-0.444-0.394-0.846-0.725-1.207v0l-10.11-11.016 1.81-1.661z" fill="#007fff" data-fill-palette-color="primary"></path><path d="M255.936 206.235v0c0.695 0.446 1.241 0.992 1.64 1.639 0.395 0.652 0.644 1.351 0.749 2.095 0.104 0.745 0.069 1.508-0.105 2.29-0.174 0.781-0.483 1.517-0.926 2.205v0l-0.886 1.381c-0.446 0.695-1.003 1.27-1.671 1.727-0.666 0.466-1.383 0.787-2.15 0.965-0.766 0.186-1.547 0.223-2.345 0.111-0.797-0.113-1.54-0.39-2.229-0.833v0l-0.686-0.441 0.982-2.276 1.144 0.734c0.412 0.265 0.856 0.425 1.33 0.483 0.47 0.063 0.935 0.034 1.395-0.086 0.456-0.114 0.884-0.314 1.282-0.601 0.401-0.277 0.734-0.622 0.999-1.034v0l0.886-1.381c0.265-0.412 0.456-0.848 0.575-1.306 0.119-0.458 0.161-0.91 0.128-1.354-0.043-0.442-0.169-0.854-0.379-1.236-0.215-0.385-0.529-0.71-0.942-0.975v0c-0.616-0.395-1.205-0.582-1.769-0.561-0.56 0.015-1.114 0.158-1.663 0.428-0.546 0.279-1.088 0.645-1.626 1.098-0.538 0.452-1.082 0.921-1.631 1.405-0.556 0.481-1.126 0.928-1.711 1.343-0.583 0.423-1.201 0.741-1.855 0.951-0.644 0.209-1.326 0.27-2.044 0.183-0.722-0.081-1.492-0.384-2.312-0.909v0c-0.689-0.442-1.235-0.984-1.636-1.625-0.406-0.635-0.668-1.314-0.787-2.036-0.124-0.726-0.104-1.466 0.062-2.222 0.16-0.759 0.463-1.485 0.909-2.18v0l0.777-1.212c0.442-0.689 0.994-1.256 1.655-1.701 0.655-0.449 1.358-0.755 2.109-0.92 0.757-0.16 1.526-0.177 2.306-0.051 0.782 0.135 1.521 0.426 2.216 0.872v0l0.068 0.044-0.983 2.276-0.525-0.337c-0.412-0.265-0.85-0.434-1.313-0.508-0.465-0.083-0.917-0.074-1.357 0.027-0.442 0.091-0.859 0.27-1.253 0.535-0.385 0.264-0.709 0.602-0.974 1.014v0l-0.778 1.212c-0.265 0.412-0.453 0.842-0.564 1.289-0.113 0.438-0.14 0.864-0.078 1.278 0.052 0.416 0.191 0.808 0.417 1.176 0.224 0.359 0.545 0.673 0.963 0.942v0c0.593 0.381 1.161 0.558 1.705 0.531 0.547-0.032 1.092-0.185 1.634-0.458 0.537-0.277 1.074-0.642 1.612-1.095 0.538-0.452 1.085-0.914 1.643-1.386 0.563-0.468 1.142-0.91 1.737-1.326 0.6-0.413 1.225-0.721 1.874-0.926 0.656-0.201 1.347-0.26 2.075-0.176 0.724 0.09 1.493 0.396 2.306 0.918z" fill="#007fff" data-fill-palette-color="primary"></path><path d="M271.885 180.507l-0.711 2.119c-0.237 0.706-0.594 1.326-1.071 1.86-0.47 0.536-1.015 0.955-1.633 1.257-0.625 0.3-1.292 0.483-2.001 0.55-0.709 0.066-1.417-0.019-2.123-0.256v0l-12.035-4.041-1.167 3.474-2.205-0.74 1.167-3.475-4.649-1.56 0.401-2.457 5.03 1.688 1.65-4.915 2.205 0.74-1.651 4.916 12.151 4.079c0.395 0.132 0.782 0.181 1.162 0.146 0.384-0.027 0.743-0.126 1.076-0.297 0.34-0.169 0.64-0.398 0.9-0.686 0.255-0.297 0.448-0.639 0.578-1.027v0l0.712-2.119z" fill="#007fff" data-fill-palette-color="primary"></path><path d="M2.218 142.284c0-6.03 4.889-10.919 10.919-10.919 6.03 0 10.919 4.889 10.919 10.919 0 6.03-4.889 10.919-10.919 10.919-6.03 0-10.919-4.889-10.919-10.919z" fill="#007fff" data-fill-palette-color="primary"></path><path d="M255.944 142.284c0-6.03 4.889-10.919 10.919-10.919 6.03 0 10.919 4.889 10.919 10.919 0 6.03-4.889 10.919-10.919 10.919-6.03 0-10.919-4.889-10.919-10.919z" fill="#007fff" data-fill-palette-color="primary"></path></g><g id="text-1"></g></svg></g></svg></g></svg></g><g></g></svg></g><defs></defs></svg><rect width="280" height="280" fill="none" stroke="none" visibility="hidden"></rect></g></svg></g></svg>